PathFileType	4	(X/Y/Z)	s03c0303.trc
DataRate	CameraRate	NumFrames	NumMarkers	Units	OrigDataRate	OrigDataStartFrame	OrigNumFrames
200	200	6	50	mm	200	1500	2000
Frame#	Time	racr			lacr			c7			jug			rlel			rdr			llel			ldr			s2			lic			ric			lasi			rasi			rpsi			lpsi			rgt			lgt			rth1			rth2			rth3			rth4			rlfc			rmfc			rsh1			rsh2			rsh3			rsh4			rlmal			rcal			rtoe			rmt5			rmt1			lth1			lth2			lth4			lth3			llfc			lmfc			lsh1			lsh2			lsh3			lsh4			llmal			lcal			ltoe			lmt1			lmt5			SBIKE			LBIKE			RBIKE			
		X1	Y1	Z1	X2	Y2	Z2	X3	Y3	Z3	X4	Y4	Z4	X5	Y5	Z5	X6	Y6	Z6	X7	Y7	Z7	X8	Y8	Z8	X9	Y9	Z9	X10	Y10	Z10	X11	Y11	Z11	X12	Y12	Z12	X13	Y13	Z13	X14	Y14	Z14	X15	Y15	Z15	X16	Y16	Z16	X17	Y17	Z17	X18	Y18	Z18	X19	Y19	Z19	X20	Y20	Z20	X21	Y21	Z21	X22	Y22	Z22	X23	Y23	Z23	X24	Y24	Z24	X25	Y25	Z25	X26	Y26	Z26	X27	Y27	Z27	X28	Y28	Z28	X29	Y29	Z29	X30	Y30	Z30	X31	Y31	Z31	X32	Y32	Z32	X33	Y33	Z33	X34	Y34	Z34	X35	Y35	Z35	X36	Y36	Z36	X37	Y37	Z37	X38	Y38	Z38	X39	Y39	Z39	X40	Y40	Z40	X41	Y41	Z41	X42	Y42	Z42	X43	Y43	Z43	X44	Y44	Z44	X45	Y45	Z45	X46	Y46	Z46	X47	Y47	Z47	X48	Y48	Z48	X49	Y49	Z49	X50	Y50	Z50	
1500	7.5000	801.332060	1387.242325	-105.927281	779.288300	1429.538931	-415.756757	752.145445	1494.942603	-245.510083	719.401273	1316.628013	-255.808774	663.757750	1175.925794	51.610576	753.683326	933.526302	-47.777667	677.066616	1190.004692	-539.983338	748.174033	924.961100	-430.615600	186.014749	1295.746018	-216.726729	347.006335	1327.682082	-407.032080	372.087194	1275.405518	-46.327351	366.409257	1249.269510	-372.972928	387.442302	1208.091426	-102.309614	228.906618	1333.245960	-167.742418	222.450964	1346.856073	-246.307151	282.955052	1166.691500	-46.675864	298.848870	1236.897696	-436.428518	304.879243	1014.728600	-35.996304	344.980986	935.435196	-39.899753	343.873484	850.518891	-52.200539	380.080416	944.360079	-47.373312	356.275354	728.547598	-88.071911	357.545855	711.853689	-202.997104	302.964020	573.107113	-54.359965	303.399052	483.865755	-63.417854	259.240480	407.510416	-63.150427	333.496662	477.589098	-87.657015	214.411119	286.363184	-80.975732	146.744921	280.821210	-111.358186	411.155742	113.625173	-120.065077	302.651188	162.543574	-46.972591	333.144240	167.190346	-158.796919	395.880415	1130.280257	-480.312066	467.666487	1083.162019	-492.483211	494.385566	1103.050493	-476.256456	505.880102	1003.636548	-506.716225	588.688852	895.321765	-504.674219	596.413633	871.374166	-376.219500	441.501947	800.072469	-505.970832	388.728367	738.680949	-478.290781	304.544234	709.026315	-461.768394	410.341288	714.431165	-456.478500	200.672886	646.695590	-430.546007	127.034438	660.082206	-381.387233	328.267658	427.972798	-358.168991	260.375720	495.881150	-321.837086	234.207077	494.460002	-437.981467	-120.128848	1018.311821	-240.884719	-14.074327	80.916312	-437.427595	-14.247939	80.613788	-37.091072	
1501	7.5050	802.201573	1387.290833	-108.617021	778.188521	1428.492701	-418.667400	752.236182	1494.436019	-248.204733	719.340326	1316.107170	-257.763816	666.488635	1176.098450	49.924199	754.668830	932.722864	-48.087430	674.503705	1189.150030	-542.230545	747.867844	925.430749	-431.252505	186.903374	1295.301068	-213.247890	345.029150	1328.366730	-406.081791	375.069552	1274.447239	-46.283824	365.585452	1249.918977	-372.307882	389.478562	1207.307578	-102.862529	230.095652	1332.508165	-165.125379	222.656120	1346.127630	-243.946931	284.495889	1165.456101	-45.725867	298.072938	1238.690844	-435.073400	303.937407	1014.243854	-34.892017	342.712320	934.137462	-38.905162	339.681732	849.442320	-50.958758	377.717235	942.569461	-46.758070	350.389133	727.098180	-87.893726	352.720603	709.838161	-202.302918	295.795072	572.366065	-53.492668	296.126898	483.214936	-62.313089	251.934305	406.782768	-61.977234	326.460701	476.887796	-86.235765	207.471265	286.400801	-78.853608	140.013670	281.800967	-109.788230	400.551939	109.084268	-120.618003	293.605110	159.910656	-46.704041	322.756306	164.094441	-159.408606	394.910309	1132.371005	-479.631693	467.143782	1085.971698	-492.343957	493.783444	1106.095335	-476.188375	505.928058	1007.218033	-507.797267	592.565789	900.248761	-504.063730	601.198800	877.078248	-375.195459	447.039348	803.068941	-505.491169	394.951598	741.203728	-477.638791	311.013478	710.573724	-461.621531	416.639182	717.443956	-455.596398	207.604424	647.611154	-430.541303	133.311694	659.972358	-381.557677	339.262841	432.033773	-358.400049	270.136914	498.909870	-322.122790	244.474845	496.508280	-438.490991	-120.128535	1018.265681	-240.994061	-14.063965	80.897099	-437.448544	-14.246145	80.607207	-37.099472	
1502	7.5100	803.121919	1387.300001	-111.279746	777.039528	1427.468492	-421.634561	752.222548	1494.043202	-250.899803	719.277298	1315.680745	-259.648827	669.457219	1176.426902	48.822206	755.882108	932.358832	-48.042782	671.841945	1188.290235	-544.415996	747.472909	925.933225	-431.600624	187.930025	1295.091082	-209.865907	343.074350	1329.148597	-405.281675	377.837355	1273.736303	-46.283643	364.690743	1250.766796	-371.613039	391.292089	1206.649255	-103.254009	227.995948	1333.985226	-157.491680	222.727983	1345.533236	-241.835582	285.998908	1164.369550	-44.880018	297.174430	1240.416322	-433.692391	303.135823	1014.008885	-33.792869	340.915583	933.390571	-37.816469	335.973875	848.625462	-49.151827	375.699609	941.258914	-46.209482	345.015606	726.110181	-87.520470	347.222385	708.762241	-201.894432	289.135969	572.039628	-52.539416	289.212866	482.926808	-61.233146	244.864046	406.667888	-60.705438	319.572484	476.384848	-84.976546	200.642780	286.440393	-77.288883	133.123607	283.257281	-108.222937	389.852418	105.232208	-121.160845	284.371481	157.869303	-46.377101	312.556871	161.650803	-159.732388	393.619508	1134.089918	-478.858589	466.247185	1088.507853	-492.450837	492.903368	1109.084849	-476.766732	505.749604	1010.059511	-507.493324	596.365777	905.191881	-503.451874	605.818149	882.957908	-374.087876	452.509262	805.775588	-504.796108	401.089169	743.265360	-476.950936	317.462145	711.565380	-461.627027	422.946502	720.016578	-454.610320	214.542770	647.749715	-430.594719	139.717001	659.239170	-381.460157	350.453714	435.891346	-358.803804	280.138142	501.491463	-322.476811	254.267400	498.301492	-438.792766	-120.185008	1018.213066	-241.111937	-14.078788	80.861207	-437.447883	-14.236768	80.599487	-37.094429	
1503	7.5150	804.089118	1388.056977	-110.462460	776.035007	1426.468135	-424.234943	752.874047	1494.088698	-253.615730	718.786852	1315.884796	-261.159840	671.834169	1176.940948	47.851425	756.711970	932.146785	-48.482977	669.187650	1187.319269	-546.314703	747.104598	926.331848	-431.717842	188.154417	1295.048116	-207.765512	341.180562	1330.110773	-404.621194	380.299060	1273.167892	-46.196202	363.695407	1251.804266	-370.971228	392.952483	1206.349218	-103.550320	230.652273	1332.721205	-157.944021	223.200782	1345.734440	-239.982049	287.499505	1163.774469	-43.969509	295.575510	1241.791325	-431.247174	302.498575	1014.145798	-32.764886	339.251852	933.034556	-36.711088	332.876130	848.240581	-47.677709	373.935403	940.332516	-45.505128	340.166335	725.602998	-87.306543	342.711386	707.902183	-201.441473	282.969231	572.132419	-51.628145	282.684461	482.964898	-60.119894	238.056502	406.861132	-59.407611	313.184543	476.274591	-83.640137	193.656745	286.921414	-75.850556	126.099574	285.259024	-106.890350	378.996213	102.131905	-121.303835	274.837570	156.432169	-45.997092	302.509003	160.201887	-159.630738	392.130370	1135.402550	-477.869938	465.022862	1090.604298	-492.026418	491.707454	1111.795018	-477.069076	505.537351	1012.375950	-506.682009	599.764851	909.902158	-502.517941	610.213870	888.786518	-372.662035	457.781632	808.028535	-504.072914	407.175763	745.008402	-476.292716	323.958509	711.849933	-461.281356	429.103727	722.275139	-453.558251	221.366171	647.329818	-430.669876	145.490495	657.629966	-381.610594	361.948495	439.341503	-358.902818	290.132773	503.637409	-322.005193	263.824152	499.568329	-439.099498	-120.183909	1018.223598	-241.217292	-14.067694	80.821639	-437.454064	-14.250690	80.599972	-37.101719	
1504	7.5200	805.888215	1388.636991	-111.630354	774.804339	1425.687410	-427.192332	752.882072	1493.840207	-256.415392	719.559435	1315.453229	-263.015408	673.789262	1177.730098	47.000701	756.282114	931.642527	-48.645698	666.512922	1186.023856	-547.521867	746.834319	926.978507	-432.212646	189.302462	1294.008617	-206.034859	339.254446	1331.228676	-403.823986	382.395352	1272.946624	-46.002296	362.617520	1253.072837	-370.498853	394.511379	1206.420745	-103.660858	230.150606	1333.915584	-153.268106	221.677595	1348.110243	-234.315318	288.973735	1163.455538	-43.102524	294.261768	1243.697389	-430.126916	302.093392	1014.580093	-31.789368	337.870515	932.971017	-35.575052	330.414312	848.276361	-46.242027	372.544827	939.846747	-44.837744	335.967390	725.357623	-86.446228	339.297077	707.277882	-201.108723	277.604758	572.590603	-50.602570	276.654121	483.353762	-59.104036	231.504503	407.575516	-58.103116	307.042525	476.465825	-82.506352	186.380781	287.992575	-74.574063	118.913836	287.692027	-105.504853	368.004298	99.759318	-121.763945	265.271847	155.753500	-45.590032	292.678625	159.665800	-159.178220	390.639701	1136.178876	-476.731068	463.975839	1092.361194	-491.454486	490.517164	1114.224830	-477.570310	505.566820	1014.517579	-505.244460	602.679544	914.465317	-501.453875	614.759541	894.955173	-371.382841	462.895059	809.705816	-502.571762	412.926342	746.276158	-475.548874	330.098113	712.058776	-461.307359	434.987484	724.206548	-452.341979	227.888951	646.498955	-430.504276	151.363123	655.158375	-381.309244	373.299875	441.911718	-357.880933	299.743826	504.986056	-322.822327	273.547755	500.284783	-439.178777	-120.212299	1018.194416	-241.351397	-14.058070	80.815836	-437.462530	-14.242542	80.599449	-37.113092	
1505	7.5250	806.839052	1388.349736	-114.423112	773.381901	1425.130320	-430.494166	752.799148	1493.627789	-259.191453	719.244012	1315.266844	-265.332722	675.410919	1178.673861	46.237590	756.466945	931.544867	-48.779326	663.782656	1185.174738	-548.759608	746.573855	927.302093	-432.223324	189.705337	1294.723440	-203.953164	337.457216	1332.596167	-403.252242	384.139426	1273.086814	-45.729081	361.361810	1254.567573	-370.218759	395.837484	1206.612672	-103.672304	230.926704	1334.442489	-151.255753	221.928104	1349.016254	-232.496685	290.424084	1163.373199	-42.311424	293.071068	1245.700848	-429.494833	301.980898	1015.215418	-30.926169	336.972661	933.268125	-34.565611	328.473452	848.575628	-45.080788	371.544502	939.742591	-44.112820	332.599781	725.398117	-84.953874	336.880896	707.142153	-200.535095	273.073888	573.303226	-49.602515	271.375988	484.383365	-57.893211	225.192098	408.833432	-56.988965	301.846275	477.151351	-81.231739	178.953956	289.623495	-73.402645	111.449708	290.571237	-104.035743	357.079080	98.446389	-122.085390	255.495818	155.705274	-45.436379	282.498462	159.616056	-159.021573	389.378680	1136.762438	-475.218179	463.073618	1093.761726	-490.354988	489.491217	1116.480896	-477.637758	505.889550	1016.404801	-503.064138	605.107673	918.876693	-500.270655	618.523810	899.551746	-369.555059	467.404455	811.338573	-501.912781	418.279024	747.347017	-474.710793	335.809378	711.985565	-460.942812	440.444278	726.003010	-451.125571	234.106874	645.274266	-430.357761	156.796869	652.078967	-381.074368	384.220864	444.713581	-359.007546	309.250236	505.639846	-323.040181	283.089109	500.219684	-438.944360	-120.239695	1018.192318	-241.330889	-14.067120	80.820752	-437.472989	-14.239276	80.595604	-37.123890	
